<?xml version="1.0" encoding="UTF-8"?> <svg xmlns="http://www.w3.org/2000/svg" width="345" height="79" viewBox="0 0 345 79" fill="none"><g clip-path="url(#clip0_12_15)"><path d="M119.894 40.0923V44.3568C118.498 43.6461 117.092 43.1171 115.677 42.77C114.28 42.4064 112.865 42.2246 111.433 42.2246C108.227 42.2246 105.738 43.1667 103.965 45.051C102.192 46.9188 101.305 49.5468 101.305 52.9354C101.305 56.3237 102.192 58.9601 103.965 60.8445C105.738 62.7123 108.227 63.6462 111.433 63.6462C112.865 63.6462 114.28 63.4726 115.677 63.1255C117.092 62.7619 118.498 62.2247 119.894 61.5139V65.7288C118.515 66.3238 117.083 66.7701 115.596 67.0676C114.128 67.3652 112.561 67.5139 110.895 67.5139C106.364 67.5139 102.765 66.1999 100.097 63.5717C97.4281 60.9436 96.0939 57.3983 96.0939 52.9353C96.0939 48.4064 97.437 44.8444 100.123 42.2493C102.828 39.6542 106.526 38.3567 111.218 38.3567C112.74 38.3567 114.226 38.5055 115.677 38.803C117.127 39.084 118.533 39.5137 119.894 40.0922" fill="#666666"></path><path d="M140.096 42.2243C137.446 42.2243 135.351 43.183 133.811 45.1003C132.27 47.0011 131.5 49.6126 131.5 52.9351C131.5 56.2573 132.261 58.8771 133.784 60.7946C135.324 62.6955 137.428 63.6459 140.096 63.6459C142.729 63.6459 144.815 62.6872 146.355 60.7698C147.896 58.8525 148.666 56.241 148.666 52.9351C148.666 49.6459 147.896 47.0426 146.355 45.1251C144.815 43.1912 142.729 42.2243 140.096 42.2243ZM140.096 38.3564C144.395 38.3565 147.77 39.6457 150.224 42.2243C152.677 44.8028 153.904 48.3729 153.904 52.9351C153.904 57.4805 152.677 61.0508 150.224 63.6459C147.77 66.2244 144.395 67.5137 140.096 67.5137C135.78 67.5137 132.396 66.2244 129.942 63.6459C127.507 61.0508 126.289 57.4807 126.289 52.9351C126.289 48.3731 127.507 44.8028 129.942 42.2243C132.396 39.6457 135.78 38.3564 140.096 38.3564Z" fill="#666666"></path><path d="M185.495 44.3544C186.73 42.3049 188.208 40.7926 189.927 39.8173C191.646 38.8421 193.67 38.3545 195.998 38.3545C199.132 38.3545 201.55 39.371 203.251 41.404C204.952 43.4206 205.803 46.2967 205.803 50.0321V66.7924H200.834V50.1808C200.834 47.5196 200.323 45.5445 199.303 44.2553C198.282 42.966 196.724 42.3214 194.628 42.3214C192.067 42.3214 190.044 43.1065 188.557 44.6768C187.071 46.2471 186.328 48.3876 186.328 51.0984V66.7925H181.358V50.181C181.358 47.5033 180.848 45.5281 179.827 44.2554C178.806 42.9662 177.23 42.3215 175.099 42.3215C172.574 42.3215 170.568 43.1149 169.082 44.7017C167.595 46.272 166.852 48.4043 166.852 51.0985V66.7927H161.883V39.0241H166.852V43.3381C167.98 41.6356 169.333 40.3795 170.909 39.5694C172.485 38.7595 174.356 38.3546 176.523 38.3546C178.708 38.3546 180.562 38.867 182.084 39.8917C183.624 40.9166 184.761 42.4042 185.495 44.3545" fill="#666666"></path><path d="M220.363 62.6271V77.3545H215.393V39.0247H220.363V43.2396C221.401 41.5867 222.709 40.3636 224.285 39.5701C225.879 38.7602 227.777 38.3553 229.98 38.3552C233.633 38.3553 236.597 39.6941 238.871 42.3718C241.164 45.0495 242.31 48.5702 242.31 52.9338C242.31 57.2974 241.164 60.8182 238.871 63.4959C236.597 66.1736 233.633 67.5125 229.98 67.5125C227.777 67.5125 225.879 67.1158 224.285 66.3224C222.709 65.5125 221.401 64.2811 220.363 62.6281V62.6271ZM237.179 52.9339C237.179 49.5786 236.427 46.9505 234.922 45.0495C233.436 43.1322 231.385 42.1735 228.771 42.1735C226.156 42.1735 224.097 43.1322 222.592 45.0495C221.106 46.9504 220.363 49.5784 220.363 52.9339C220.363 56.2892 221.106 58.9255 222.592 60.843C224.097 62.7439 226.156 63.6943 228.771 63.6943C231.385 63.6943 233.436 62.7439 234.922 60.843C236.427 58.9257 237.179 56.2894 237.179 52.9339Z" fill="#666666"></path><path d="M264.176 52.8341C260.182 52.8341 257.415 53.2556 255.875 54.0986C254.335 54.9416 253.565 56.3797 253.565 58.4126C253.565 60.0325 254.138 61.3217 255.284 62.2804C256.449 63.2226 258.025 63.6936 260.012 63.6936C262.752 63.6936 264.946 62.8011 266.594 61.0159C268.259 59.2143 269.092 56.8259 269.092 53.8507V52.8342H264.176L264.176 52.8341ZM274.035 50.9499V66.7927H269.092V62.5779C267.964 64.2638 266.558 65.5117 264.875 66.3217C263.191 67.1151 261.132 67.5118 258.696 67.5118C255.616 67.5118 253.162 66.7184 251.336 65.1316C249.527 63.5283 248.623 61.3877 248.623 58.71C248.623 55.5861 249.751 53.2307 252.007 51.6439C254.282 50.0572 257.666 49.2637 262.162 49.2637H269.092V48.8174C269.092 46.7183 268.34 45.0983 266.836 43.958C265.349 42.801 263.254 42.2225 260.55 42.2225C258.831 42.2225 257.156 42.4126 255.527 42.7927C253.897 43.1729 252.33 43.7432 250.826 44.5035V40.2886C252.634 39.644 254.389 39.1647 256.091 38.8506C257.792 38.5201 259.448 38.3548 261.06 38.3547C265.412 38.3548 268.662 39.3961 270.811 41.4786C272.96 43.5613 274.035 46.7184 274.035 50.9498" fill="#666666"></path><path d="M309.359 50.0339V66.7942H304.416V50.1826C304.416 47.5545 303.861 45.5876 302.751 44.2818C301.64 42.9761 299.975 42.3232 297.754 42.3232C295.086 42.3232 292.982 43.1083 291.442 44.6786C289.901 46.2489 289.131 48.3894 289.131 51.1002V66.7943H284.162V39.0257H289.131V43.3397C290.313 41.6703 291.701 40.4224 293.295 39.5959C294.907 38.7694 296.76 38.3562 298.856 38.3562C302.312 38.3562 304.927 39.348 306.7 41.3314C308.473 43.2983 309.359 46.1993 309.359 50.0338" fill="#666666"></path><path d="M331.79 69.3716C330.393 72.6773 329.032 74.8344 327.706 75.8427C326.381 76.851 324.608 77.3551 322.388 77.3551H318.439V73.5369H321.34C322.701 73.5369 323.758 73.2394 324.51 72.6444C325.262 72.0493 326.095 70.6444 327.008 68.4295L327.894 66.3468L315.726 39.0249H320.964L330.366 60.744L339.768 39.0249H345.006L331.789 69.3729" fill="#666666"></path><path d="M105.992 22.8256C105.992 21.3349 105.657 20.1796 104.987 19.3598C104.325 18.5399 103.392 18.13 102.189 18.13C100.994 18.13 100.061 18.5399 99.3907 19.3598C98.7285 20.1797 98.3974 21.335 98.3974 22.8256C98.3974 24.3089 98.7285 25.4604 99.3907 26.2803C100.061 27.1001 100.994 27.5101 102.189 27.5101C103.392 27.5101 104.325 27.1001 104.987 26.2803C105.657 25.4604 105.992 24.3088 105.992 22.8256ZM108.221 27.6779C108.221 29.8095 107.708 31.3934 106.683 32.4294C105.657 33.4729 104.086 33.9946 101.971 33.9946C101.187 33.9946 100.448 33.9387 99.754 33.8269C99.0594 33.7226 98.3851 33.5586 97.731 33.335V31.3337C98.3851 31.6617 99.0312 31.9039 99.6692 32.0604C100.307 32.2169 100.957 32.2952 101.619 32.2952C103.081 32.2952 104.175 31.9412 104.902 31.2331C105.629 30.5325 105.992 29.4703 105.992 28.0466V27.0293C105.532 27.7672 104.943 28.3187 104.224 28.6839C103.505 29.0492 102.645 29.2318 101.644 29.2318C99.9802 29.2318 98.6397 28.6467 97.622 27.4765C96.6045 26.3063 96.0957 24.7559 96.0957 22.8254C96.0957 20.8875 96.6045 19.3335 97.622 18.1632C98.6395 16.9931 99.9801 16.408 101.644 16.408C102.645 16.408 103.505 16.5906 104.224 16.9558C104.943 17.321 105.532 17.8726 105.992 18.6105V16.7098H108.221V27.6777" fill="#666666"></path><path d="M124.416 22.4571V23.4634H114.168C114.265 24.8795 114.725 25.9602 115.549 26.7056C116.381 27.4435 117.536 27.8125 119.014 27.8125C119.87 27.8125 120.697 27.7156 121.497 27.5218C122.304 27.328 123.104 27.0373 123.895 26.6497V28.5951C123.096 28.9081 122.276 29.1466 121.436 29.3106C120.596 29.4746 119.744 29.5566 118.88 29.5566C116.716 29.5566 115 28.9752 113.732 27.8125C112.472 26.6497 111.842 25.0772 111.842 23.0945C111.842 21.0448 112.44 19.4198 113.635 18.2199C114.838 17.0124 116.458 16.4087 118.493 16.4087C120.318 16.4087 121.759 16.9528 122.817 18.041C123.883 19.1218 124.416 20.5939 124.416 22.4571L124.416 22.4571ZM122.187 21.8534C122.171 20.7279 121.828 19.8297 121.158 19.1589C120.495 18.4881 119.615 18.1527 118.517 18.1527C117.273 18.1527 116.276 18.4769 115.525 19.1254C114.782 19.7738 114.354 20.6869 114.241 21.8645L122.187 21.8533" fill="#666666"></path><path d="M139.304 21.6732V29.2311H137.075V21.7404C137.075 20.5554 136.825 19.6684 136.324 19.0795C135.824 18.4907 135.073 18.1963 134.071 18.1963C132.868 18.1963 131.919 18.5503 131.224 19.2584C130.53 19.9665 130.183 20.9317 130.183 22.1541V29.2311H127.942V16.7093H130.183V18.6547C130.716 17.9019 131.342 17.3391 132.06 16.9665C132.787 16.5938 133.623 16.4075 134.568 16.4075C136.126 16.4075 137.305 16.8547 138.105 17.7491C138.904 18.6361 139.304 19.9442 139.304 21.6734" fill="#666666"></path><path d="M155.378 22.4571V23.4634H145.13C145.227 24.8795 145.688 25.9602 146.511 26.7056C147.343 27.4435 148.498 27.8125 149.976 27.8125C150.832 27.8125 151.66 27.7156 152.459 27.5218C153.267 27.328 154.066 27.0373 154.858 26.6497V28.5951C154.058 28.9081 153.239 29.1466 152.399 29.3106C151.559 29.4746 150.707 29.5566 149.843 29.5566C147.678 29.5566 145.962 28.9752 144.695 27.8125C143.435 26.6497 142.805 25.0772 142.805 23.0945C142.805 21.0448 143.402 19.4198 144.598 18.2199C145.801 17.0124 147.42 16.4087 149.455 16.4087C151.28 16.4087 152.722 16.9528 153.78 18.041C154.846 19.1218 155.379 20.5939 155.379 22.4571L155.378 22.4571ZM153.15 21.8534C153.134 20.7279 152.79 19.8297 152.12 19.1589C151.458 18.4881 150.578 18.1527 149.479 18.1527C148.236 18.1527 147.238 18.4769 146.488 19.1254C145.745 19.7738 145.317 20.6869 145.203 21.8645L153.15 21.8533" fill="#666666"></path><path d="M166.85 18.6329C166.6 18.4987 166.325 18.4018 166.026 18.3422C165.736 18.2751 165.413 18.2416 165.057 18.2416C163.798 18.2416 162.828 18.6217 162.15 19.3819C161.48 20.1348 161.145 21.2192 161.145 22.6354V29.2318H158.904V16.7101H161.145V18.6554C161.613 17.8952 162.223 17.3324 162.974 16.9672C163.725 16.5945 164.637 16.4082 165.711 16.4082C165.865 16.4082 166.034 16.4194 166.22 16.4417C166.406 16.4567 166.612 16.4828 166.838 16.52L166.85 18.6331" fill="#666666"></path><path d="M169.212 16.71H171.441V29.2318H169.212V16.71ZM169.212 11.8354H171.441V14.4403H169.212V11.8354Z" fill="#666666"></path><path d="M185.857 17.1906V19.1136C185.227 18.7931 184.593 18.5546 183.955 18.3981C183.325 18.2341 182.687 18.1521 182.041 18.1521C180.596 18.1521 179.473 18.577 178.674 19.4267C177.874 20.2689 177.474 21.454 177.474 22.982C177.474 24.51 177.874 25.6988 178.674 26.5486C179.473 27.3908 180.596 27.8119 182.041 27.8119C182.687 27.812 183.325 27.7337 183.955 27.5772C184.593 27.4132 185.227 27.171 185.857 26.8505V28.7511C185.235 29.0194 184.589 29.2207 183.919 29.3548C183.256 29.489 182.55 29.5561 181.799 29.5561C179.756 29.5561 178.132 28.9635 176.929 27.7784C175.726 26.5933 175.124 24.9946 175.124 22.982C175.124 20.9398 175.73 19.3335 176.941 18.1633C178.161 16.9931 179.828 16.408 181.944 16.408C182.631 16.408 183.301 16.4751 183.955 16.6092C184.609 16.7359 185.243 16.9297 185.857 17.1906" fill="#666666"></path><path d="M197.607 11.8354H199.836V29.2318H197.607V11.8354Z" fill="#666666"></path><path d="M209.744 18.1524C208.549 18.1524 207.604 18.5847 206.91 19.4493C206.215 20.3064 205.868 21.4841 205.868 22.9823C205.868 24.4805 206.211 25.6618 206.898 26.5265C207.592 27.3837 208.541 27.8123 209.744 27.8123C210.931 27.8123 211.872 27.38 212.567 26.5153C213.261 25.6508 213.608 24.4731 213.608 22.9823C213.608 21.4991 213.261 20.3251 212.567 19.4606C211.872 18.5886 210.931 18.1526 209.744 18.1526L209.744 18.1524ZM209.744 16.4084C211.682 16.4085 213.205 16.9898 214.311 18.1526C215.417 19.3153 215.97 20.9252 215.97 22.9825C215.97 25.0322 215.417 26.6422 214.311 27.8124C213.205 28.9751 211.682 29.5565 209.744 29.5565C207.798 29.5565 206.272 28.9751 205.165 27.8124C204.067 26.6422 203.518 25.0322 203.518 22.9825C203.518 20.9253 204.067 19.3154 205.165 18.1526C206.272 16.9898 207.798 16.4085 209.744 16.4084Z" fill="#666666"></path><path d="M228.581 22.8256C228.581 21.3349 228.246 20.1796 227.576 19.3598C226.914 18.5399 225.981 18.13 224.778 18.13C223.583 18.13 222.65 18.5399 221.98 19.3598C221.317 20.1797 220.986 21.335 220.986 22.8256C220.986 24.3089 221.317 25.4604 221.98 26.2803C222.65 27.1001 223.583 27.5101 224.778 27.5101C225.981 27.5101 226.914 27.1001 227.576 26.2803C228.246 25.4604 228.581 24.3088 228.581 22.8256ZM230.81 27.6779C230.81 29.8095 230.297 31.3934 229.272 32.4294C228.246 33.4729 226.675 33.9946 224.56 33.9946C223.776 33.9946 223.037 33.9387 222.343 33.8269C221.648 33.7226 220.974 33.5586 220.32 33.335V31.3337C220.974 31.6617 221.62 31.9039 222.258 32.0604C222.896 32.2169 223.546 32.2952 224.208 32.2952C225.67 32.2952 226.764 31.9412 227.491 31.2331C228.218 30.5325 228.581 29.4703 228.581 28.0466V27.0293C228.121 27.7672 227.532 28.3187 226.813 28.6839C226.094 29.0492 225.234 29.2318 224.233 29.2318C222.569 29.2318 221.229 28.6467 220.211 27.4765C219.193 26.3063 218.685 24.7559 218.685 22.8254C218.685 20.8875 219.193 19.3335 220.211 18.1632C221.229 16.9931 222.569 16.408 224.233 16.408C225.234 16.408 226.094 16.5906 226.813 16.9558C227.532 17.321 228.121 17.8726 228.581 18.6105V16.7098H230.81V27.6777" fill="#666666"></path><path d="M240.66 18.1524C239.465 18.1524 238.52 18.5847 237.826 19.4493C237.131 20.3064 236.784 21.4841 236.784 22.9823C236.784 24.4805 237.127 25.6618 237.814 26.5265C238.508 27.3837 239.457 27.8123 240.661 27.8123C241.848 27.8123 242.789 27.38 243.483 26.5153C244.177 25.6508 244.525 24.4731 244.525 22.9823C244.525 21.4991 244.177 20.3251 243.483 19.4606C242.788 18.5886 241.848 18.1526 240.661 18.1526L240.66 18.1524ZM240.661 16.4084C242.599 16.4085 244.121 16.9898 245.227 18.1526C246.334 19.3153 246.887 20.9252 246.887 22.9825C246.887 25.0322 246.334 26.6422 245.227 27.8124C244.121 28.9751 242.599 29.5565 240.661 29.5565C238.714 29.5565 237.188 28.9751 236.082 27.8124C234.983 26.6422 234.434 25.0322 234.434 22.9825C234.434 20.9253 234.983 19.3154 236.082 18.1526C237.188 16.9898 238.714 16.4085 240.661 16.4084Z" fill="#666666"></path><path d="M73.0645 11.5647C89.778 26.9906 89.778 52.0002 73.0645 67.426C56.351 82.8519 29.2538 82.8519 12.5403 67.426C-4.17321 52.0002 -4.17321 26.9906 12.5403 11.5647C29.2538 -3.86118 56.351 -3.86118 73.0645 11.5647Z" fill="url(#paint0_linear_12_15)"></path><path d="M73.2744 33.6113C83.4507 43.0036 83.4507 58.2312 73.2743 67.6236C63.098 77.0159 46.5993 77.0159 36.423 67.6236C26.2466 58.2312 26.2466 43.0036 36.423 33.6113C46.5993 24.2189 63.098 24.2189 73.2744 33.6113Z" fill="#EEEEEE"></path></g><defs><linearGradient id="paint0_linear_12_15" x1="14.248" y1="12.691" x2="68.3235" y2="71.7658" gradientUnits="userSpaceOnUse"><stop stop-color="#2294FE"></stop><stop offset="1" stop-color="#014F96"></stop></linearGradient><clipPath id="clip0_12_15"><rect width="345" height="79" fill="white"></rect></clipPath></defs></svg> 