<?xml version="1.0" standalone="no"?>
<svg id="Group_4933" data-name="Group 4933" xmlns="http://www.w3.org/2000/svg" width="59.931" height="48.656" viewBox="0 0 59.931 48.656">
  <g id="Group_4931" data-name="Group 4931" transform="translate(0 0)">
    <path id="Path_3307" data-name="Path 3307" d="M1101.106,478.032a4.962,4.962,0,0,1-4.615-3.594l-.868-3.061,2.254-.639.866,3.006a2.648,2.648,0,0,0,2.3,1.933l26.437,0a2.5,2.5,0,0,0,2.192-2.5V457.256c0-.063-.005-.107-.01-.151a2.047,2.047,0,0,0-2.053-1.862c-.062,0-.124,0-.187.009l-45.231,0,3.835,8.324a1.869,1.869,0,0,0,1.682,1.083h21.531v2.352h-21.529a4.3,4.3,0,0,1-3.819-2.5l-4.294-9.374a1.572,1.572,0,0,1-.154-.75,1.553,1.553,0,0,1,1.552-1.485h46.567a4.439,4.439,0,0,1,4.461,4.368v15.918a4.828,4.828,0,0,1-4.543,4.851Z" transform="translate(-1079.443 -452.895)" fill="#393636"/>
    <rect id="Rectangle_2338" data-name="Rectangle 2338" width="2.205" height="3.675" transform="translate(35.605 14.775)" fill="#393636"/>
    <rect id="Rectangle_2339" data-name="Rectangle 2339" width="2.205" height="3.675" transform="translate(41.484 14.775)" fill="#393636"/>
    <path id="Path_3308" data-name="Path 3308" d="M1147.669,512.419v-5.88h-18.49l-.15.456a4.856,4.856,0,0,1-4.582,3.343,4.716,4.716,0,0,1-4.765-4.022,4.777,4.777,0,0,1,3.292-5.476l.442-.155V493.9h2.351v6.723l.409.169a5.189,5.189,0,0,1,2.862,2.968l.16.43h18.471v-5.145h2.351v13.376Zm-23.278-9.509a2.555,2.555,0,1,0,2.572,2.555A2.483,2.483,0,0,0,1124.391,502.91Z" transform="translate(-1090.089 -463.763)" fill="#393636"/>
  </g>
  <g id="Group_4932" data-name="Group 4932" transform="translate(35.605 14.775)">
    <rect id="Rectangle_2338-2" data-name="Rectangle 2338" width="2.205" height="3.675" fill="#ff4924"/>
    <rect id="Rectangle_2339-2" data-name="Rectangle 2339" width="2.205" height="3.675" transform="translate(5.88)" fill="#ff4924"/>
  </g>
</svg>
