<svg xmlns="http://www.w3.org/2000/svg" width="29.901" height="29.898" viewBox="0 0 29.901 29.898">
  <path id="Path_41" data-name="Path 41" d="M233.975,794.064H208.494a2.176,2.176,0,0,0-2.21,2.14v25.616a2.18,2.18,0,0,0,2.21,2.143h25.481a2.18,2.18,0,0,0,2.21-2.143V796.2a2.177,2.177,0,0,0-2.21-2.14m-4.788,10.869.014.53a11.678,11.678,0,0,1-17.973,9.834,8.757,8.757,0,0,0,.976.052,8.275,8.275,0,0,0,5.1-1.748,4.128,4.128,0,0,1-3.837-2.853,4.295,4.295,0,0,0,1.856-.068,4.115,4.115,0,0,1-3.291-4.03v-.05a4.071,4.071,0,0,0,1.856.512,4.1,4.1,0,0,1-1.826-3.413,4.05,4.05,0,0,1,.557-2.063,11.661,11.661,0,0,0,8.464,4.285,4.16,4.16,0,0,1-.1-.934,4.1,4.1,0,0,1,7.1-2.807,8.164,8.164,0,0,0,2.614-1,4.143,4.143,0,0,1-1.808,2.274,8.144,8.144,0,0,0,2.359-.649,8.259,8.259,0,0,1-2.053,2.125" transform="translate(-206.284 -794.064)" fill="#fff"/>
</svg>
