<svg xmlns="http://www.w3.org/2000/svg" width="29.899" height="29.896" viewBox="0 0 29.899 29.896">
  <path id="Path_39" data-name="Path 39" d="M167.89,794.064H142.409a2.175,2.175,0,0,0-2.208,2.14v25.616a2.175,2.175,0,0,0,2.208,2.141H167.89a2.174,2.174,0,0,0,2.21-2.141V796.2a2.174,2.174,0,0,0-2.21-2.14m-18.624,25.027h-4.52v-13.5h4.52Zm-2.258-15.343h-.032a2.579,2.579,0,1,1,.032,0m18.54,15.343h-4.514v-7.225c0-1.814-.653-3.052-2.286-3.052a2.475,2.475,0,0,0-2.321,1.641,3.071,3.071,0,0,0-.149,1.093v7.542h-4.514s.06-12.233,0-13.5h4.514V807.5a4.494,4.494,0,0,1,4.07-2.23c2.973,0,5.2,1.931,5.2,6.078Zm-9.3-11.544.028-.044v.044Z" transform="translate(-140.201 -794.064)" fill="#fff"/>
</svg>
