<svg xmlns="http://www.w3.org/2000/svg" width="29.933" height="29.933" viewBox="0 0 29.933 29.933">
  <path id="Path_35" data-name="Path 35" d="M187.983,794.089H166.118a4.035,4.035,0,0,0-4.035,4.035v21.865a4.037,4.037,0,0,0,4.035,4.033H176.9l.016-10.7h-2.778a.654.654,0,0,1-.656-.652l-.012-3.451a.653.653,0,0,1,.654-.658H176.9v-3.329c0-3.868,2.361-5.972,5.809-5.972h2.83a.656.656,0,0,1,.656.658v2.9a.656.656,0,0,1-.656.656H183.8c-1.875,0-2.237.893-2.237,2.2v2.882h4.121a.656.656,0,0,1,.65.734l-.406,3.45a.658.658,0,0,1-.652.577h-3.695l-.018,10.7h6.416a4.031,4.031,0,0,0,4.033-4.033V798.124a4.032,4.032,0,0,0-4.033-4.035" transform="translate(-162.083 -794.089)" fill="#fff"/>
</svg>
