<svg data-name="Group 4933" xmlns="http://www.w3.org/2000/svg" width="59.931" height="48.656"><g data-name="Group 4931" fill="#393636"><path data-name="Path 3307" d="M21.663 25.137a4.962 4.962 0 01-4.615-3.594l-.868-3.061 2.254-.639.866 3.006a2.648 2.648 0 002.3 1.933h26.437a2.5 2.5 0 002.192-2.5V4.361c0-.063-.005-.107-.01-.151a2.047 2.047 0 00-2.053-1.862c-.062 0-.124 0-.187.009H2.748l3.835 8.324a1.869 1.869 0 001.682 1.083h21.531v2.352H8.267a4.3 4.3 0 01-3.819-2.5L.154 2.242A1.572 1.572 0 010 1.492 1.553 1.553 0 011.552.007h46.567a4.439 4.439 0 014.461 4.368v15.918a4.828 4.828 0 01-4.543 4.851z"/><path data-name="Rectangle 2338" d="M35.605 14.775h2.205v3.675h-2.205z"/><path data-name="Rectangle 2339" d="M41.484 14.775h2.205v3.675h-2.205z"/><path data-name="Path 3308" d="M57.58 48.656v-5.88H39.09l-.15.456a4.856 4.856 0 01-4.582 3.343 4.716 4.716 0 01-4.765-4.022 4.777 4.777 0 013.292-5.476l.442-.155v-6.785h2.351v6.723l.409.169a5.189 5.189 0 012.862 2.968l.16.43H57.58v-5.145h2.351v13.376zm-23.278-9.509a2.555 2.555 0 102.572 2.555 2.483 2.483 0 00-2.572-2.555z"/></g><g data-name="Group 4932" fill="#ff4924"><path data-name="Rectangle 2338" d="M35.605 14.775h2.205v3.675h-2.205z"/><path data-name="Rectangle 2339" d="M41.485 14.775h2.205v3.675h-2.205z"/></g></svg>