<svg xmlns="http://www.w3.org/2000/svg" width="29.899" height="29.896"><path data-name="Path 39" d="M27.689 0H2.208A2.175 2.175 0 000 2.14v25.616a2.175 2.175 0 002.208 2.141h25.481a2.174 2.174 0 002.21-2.141V2.136a2.174 2.174 0 00-2.21-2.14M9.065 25.023h-4.52v-13.5h4.52zM6.807 9.68h-.032a2.579 2.579 0 11.032 0m18.54 15.343h-4.514v-7.225c0-1.814-.653-3.052-2.286-3.052a2.475 2.475 0 00-2.321 1.641 3.071 3.071 0 00-.149 1.093v7.542h-4.514s.06-12.233 0-13.5h4.514v1.914a4.494 4.494 0 014.07-2.23c2.973 0 5.2 1.931 5.2 6.078zm-9.3-11.544l.028-.044v.044z" fill="#fff"/></svg>