<svg xmlns="http://www.w3.org/2000/svg" width="29.933" height="29.933"><path data-name="Path 35" d="M25.9 0H4.035A4.035 4.035 0 000 4.035V25.9a4.037 4.037 0 004.035 4.033h10.782l.016-10.7h-2.778a.654.654 0 01-.656-.652l-.012-3.451a.653.653 0 01.654-.658h2.776v-3.329c0-3.868 2.361-5.972 5.809-5.972h2.83a.656.656 0 01.656.658v2.9a.656.656 0 01-.656.656h-1.739c-1.875 0-2.237.893-2.237 2.2v2.882h4.121a.656.656 0 01.65.734l-.406 3.45a.658.658 0 01-.652.577h-3.695l-.018 10.7h6.416a4.031 4.031 0 004.033-4.033V4.035A4.032 4.032 0 0025.896 0" fill="#fff"/></svg>