<svg xmlns="http://www.w3.org/2000/svg" width="29.901" height="29.898"><path data-name="Path 41" d="M27.691 0H2.21A2.176 2.176 0 000 2.14v25.616a2.18 2.18 0 002.21 2.143h25.481a2.18 2.18 0 002.21-2.143V2.136a2.177 2.177 0 00-2.21-2.14m-4.788 10.869l.014.53a11.678 11.678 0 01-17.973 9.834 8.757 8.757 0 00.976.052 8.275 8.275 0 005.1-1.748 4.128 4.128 0 01-3.837-2.853 4.295 4.295 0 001.856-.068 4.115 4.115 0 01-3.291-4.03v-.05a4.071 4.071 0 001.856.512 4.1 4.1 0 01-1.826-3.413 4.05 4.05 0 01.557-2.063 11.661 11.661 0 008.464 4.285 4.16 4.16 0 01-.1-.934 4.1 4.1 0 017.1-2.807 8.164 8.164 0 002.614-1 4.143 4.143 0 01-1.808 2.274 8.144 8.144 0 002.359-.649 8.259 8.259 0 01-2.053 2.125" fill="#fff"/></svg>