<?xml version="1.0" encoding="utf-8"?><svg width="103" height="99" viewBox="0 0 103 99" xmlns="http://www.w3.org/2000/svg" xmlns:xlink="http://www.w3.org/1999/xlink"><svg width="12.428" height="24.24" viewBox="0 0 12.428 24.24" id="arrow" x="89.864" xmlns="http://www.w3.org/2000/svg"><path data-name="Path 3380" d="M0 0l12.428 11.911L0 24.24v-6.533l5.631-5.8L0 7z"/></svg><svg width="25.809" height="20.49" viewBox="0 0 25.809 20.49" id="arrow-orange-right" x="59.8" y="48.656" xmlns="http://www.w3.org/2000/svg"><path data-name="Path 3341" d="M0 5.703h15.564v-5.7l10.244 10.244-10.244 10.246v-6.117H0z" fill="#e55b2b"/></svg><svg width="19.584" height="19.584" viewBox="0 0 19.584 19.584" id="mail" x="19.586" y="78.554" xmlns="http://www.w3.org/2000/svg"><path data-name="Path 6" d="M17.964 6.448a1.607 1.607 0 00-.769-1.37L9.792.806l-7.4 4.272a1.614 1.614 0 00-.78 1.37v8.058a1.624 1.624 0 001.636 1.612h13.088a1.624 1.624 0 001.636-1.612l-.008-8.06zm-8.172 4.03L3.035 6.315l6.757-3.9 6.757 3.9z" fill="#fff"/><path data-name="Path 7" d="M0 0h19.584v19.584H0z" fill="none"/></svg><svg data-name="Group 4933" width="59.931" height="48.656" viewBox="0 0 59.931 48.656" id="messages" xmlns="http://www.w3.org/2000/svg"><g data-name="Group 4931" fill="#393636"><path data-name="Path 3307" d="M21.663 25.137a4.962 4.962 0 01-4.615-3.594l-.868-3.061 2.254-.639.866 3.006a2.648 2.648 0 002.3 1.933h26.437a2.5 2.5 0 002.192-2.5V4.361c0-.063-.005-.107-.01-.151a2.047 2.047 0 00-2.053-1.862c-.062 0-.124 0-.187.009H2.748l3.835 8.324a1.869 1.869 0 001.682 1.083h21.531v2.352H8.267a4.3 4.3 0 01-3.819-2.5L.154 2.242A1.572 1.572 0 010 1.492 1.553 1.553 0 011.552.007h46.567a4.439 4.439 0 014.461 4.368v15.918a4.828 4.828 0 01-4.543 4.851z"/><path data-name="Rectangle 2338" d="M35.605 14.775h2.205v3.675h-2.205z"/><path data-name="Rectangle 2339" d="M41.484 14.775h2.205v3.675h-2.205z"/><path data-name="Path 3308" d="M57.58 48.656v-5.88H39.09l-.15.456a4.856 4.856 0 01-4.582 3.343 4.716 4.716 0 01-4.765-4.022 4.777 4.777 0 013.292-5.476l.442-.155v-6.785h2.351v6.723l.409.169a5.189 5.189 0 012.862 2.968l.16.43H57.58v-5.145h2.351v13.376zm-23.278-9.509a2.555 2.555 0 102.572 2.555 2.483 2.483 0 00-2.572-2.555z"/></g><g data-name="Group 4932" fill="#ff4924"><path data-name="Rectangle 2338" d="M35.605 14.775h2.205v3.675h-2.205z"/><path data-name="Rectangle 2339" d="M41.485 14.775h2.205v3.675h-2.205z"/></g></svg><svg width="19.586" height="19.586" viewBox="0 0 19.586 19.586" id="phone" y="78.554" xmlns="http://www.w3.org/2000/svg"><path data-name="Path 2" d="M0 0h19.586v19.586H0z" fill="none"/><path data-name="Path 3" d="M5.361 8.8a12.418 12.418 0 005.434 5.43l1.814-1.818a.827.827 0 01.837-.2 9.387 9.387 0 002.944.47.822.822 0 01.825.825v2.886a.822.822 0 01-.825.825A14.017 14.017 0 012.372 3.197a.824.824 0 01.825-.825h2.886a.822.822 0 01.825.825 9.387 9.387 0 00.47 2.944.827.827 0 01-.2.837z" fill="#fff"/></svg><svg width="19.582" height="19.582" viewBox="0 0 19.582 19.582" id="search" x="39.17" y="78.554" xmlns="http://www.w3.org/2000/svg"><path data-name="Path 8" d="M12.655 11.428h-.65l-.225-.225a5.277 5.277 0 10-.576.581l.225.225v.646l4.088 4.08 1.217-1.218-4.08-4.088zm-4.906 0a3.68 3.68 0 113.68-3.68 3.68 3.68 0 01-3.68 3.68z"/><path data-name="Path 9" d="M0 0h19.582v19.582H0z" fill="none"/></svg><svg width="29.933" height="29.933" viewBox="0 0 29.933 29.933" id="social-facebook" x="59.931" xmlns="http://www.w3.org/2000/svg"><path data-name="Path 35" d="M25.9 0H4.035A4.035 4.035 0 000 4.035V25.9a4.037 4.037 0 004.035 4.033h10.782l.016-10.7h-2.778a.654.654 0 01-.656-.652l-.012-3.451a.653.653 0 01.654-.658h2.776v-3.329c0-3.868 2.361-5.972 5.809-5.972h2.83a.656.656 0 01.656.658v2.9a.656.656 0 01-.656.656h-1.739c-1.875 0-2.237.893-2.237 2.2v2.882h4.121a.656.656 0 01.65.734l-.406 3.45a.658.658 0 01-.652.577h-3.695l-.018 10.7h6.416a4.031 4.031 0 004.033-4.033V4.035A4.032 4.032 0 0025.896 0" fill="#fff"/></svg><svg width="29.899" height="29.896" viewBox="0 0 29.899 29.896" id="social-linkedin" x="29.901" y="48.656" xmlns="http://www.w3.org/2000/svg"><path data-name="Path 39" d="M27.689 0H2.208A2.175 2.175 0 000 2.14v25.616a2.175 2.175 0 002.208 2.141h25.481a2.174 2.174 0 002.21-2.141V2.136a2.174 2.174 0 00-2.21-2.14M9.065 25.023h-4.52v-13.5h4.52zM6.807 9.68h-.032a2.579 2.579 0 11.032 0m18.54 15.343h-4.514v-7.225c0-1.814-.653-3.052-2.286-3.052a2.475 2.475 0 00-2.321 1.641 3.071 3.071 0 00-.149 1.093v7.542h-4.514s.06-12.233 0-13.5h4.514v1.914a4.494 4.494 0 014.07-2.23c2.973 0 5.2 1.931 5.2 6.078zm-9.3-11.544l.028-.044v.044z" fill="#fff"/></svg><svg width="29.901" height="29.898" viewBox="0 0 29.901 29.898" id="social-twitter" y="48.656" xmlns="http://www.w3.org/2000/svg"><path data-name="Path 41" d="M27.691 0H2.21A2.176 2.176 0 000 2.14v25.616a2.18 2.18 0 002.21 2.143h25.481a2.18 2.18 0 002.21-2.143V2.136a2.177 2.177 0 00-2.21-2.14m-4.788 10.869l.014.53a11.678 11.678 0 01-17.973 9.834 8.757 8.757 0 00.976.052 8.275 8.275 0 005.1-1.748 4.128 4.128 0 01-3.837-2.853 4.295 4.295 0 001.856-.068 4.115 4.115 0 01-3.291-4.03v-.05a4.071 4.071 0 001.856.512 4.1 4.1 0 01-1.826-3.413 4.05 4.05 0 01.557-2.063 11.661 11.661 0 008.464 4.285 4.16 4.16 0 01-.1-.934 4.1 4.1 0 017.1-2.807 8.164 8.164 0 002.614-1 4.143 4.143 0 01-1.808 2.274 8.144 8.144 0 002.359-.649 8.259 8.259 0 01-2.053 2.125" fill="#fff"/></svg></svg>